<svg width="24" height="24" viewBox="0 0 24 24" fill="none" xmlns="http://www.w3.org/2000/svg">
<path d="M16 2H8C4.691 2 2 4.691 2 8V21C2 21.2652 2.10536 21.5196 2.29289 21.7071C2.48043 21.8946 2.73478 22 3 22H16C19.309 22 22 19.309 22 16V8C22 4.691 19.309 2 16 2ZM11 12.5C11 12.8978 10.842 13.2794 10.5607 13.5607C10.2794 13.842 9.89782 14 9.5 14C9.414 14 9.332 13.989 9.25 13.975C9.167 13.985 9.086 14 9 14C8.60444 14 8.21776 13.8827 7.88886 13.6629C7.55996 13.4432 7.30362 13.1308 7.15224 12.7654C7.00087 12.3999 6.96126 11.9978 7.03843 11.6098C7.1156 11.2219 7.30608 10.8655 7.58579 10.5858C7.86549 10.3061 8.22186 10.1156 8.60982 10.0384C8.99778 9.96126 9.39991 10.0009 9.76537 10.1522C10.1308 10.3036 10.4432 10.56 10.6629 10.8889C10.8827 11.2178 11 11.6044 11 12C11 12.085 10.985 12.167 10.975 12.25C10.988 12.332 11 12.414 11 12.5ZM15 14C14.914 14 14.833 13.985 14.75 13.975C14.6675 13.9904 14.5839 13.9988 14.5 14C14.1022 14 13.7206 13.842 13.4393 13.5607C13.158 13.2794 13 12.8978 13 12.5C13 12.415 13.012 12.332 13.025 12.25C13.015 12.167 13 12.086 13 12C13 11.6044 13.1173 11.2178 13.3371 10.8889C13.5568 10.56 13.8692 10.3036 14.2346 10.1522C14.6001 10.0009 15.0022 9.96126 15.3902 10.0384C15.7781 10.1156 16.1345 10.3061 16.4142 10.5858C16.6939 10.8655 16.8844 11.2219 16.9616 11.6098C17.0387 11.9978 16.9991 12.3999 16.8478 12.7654C16.6964 13.1308 16.44 13.4432 16.1111 13.6629C15.7822 13.8827 15.3956 14 15 14V14Z" fill="white"/>
</svg>
