<svg width="16" height="16" viewBox="0 0 16 16" fill="none" xmlns="http://www.w3.org/2000/svg">
<path d="M1.56286 10.1806L2.89619 12.4873C2.98471 12.6403 3.13037 12.7519 3.30114 12.7975C3.47192 12.8432 3.65382 12.8191 3.80686 12.7306L4.73752 12.1933C5.12419 12.498 5.55153 12.748 6.00086 12.9346V14C6.00086 14.1768 6.0711 14.3464 6.19612 14.4714C6.32114 14.5964 6.49071 14.6666 6.66752 14.6666H9.33419C9.511 14.6666 9.68057 14.5964 9.8056 14.4714C9.93062 14.3464 10.0009 14.1768 10.0009 14V12.9346C10.4537 12.7461 10.8787 12.4967 11.2642 12.1933L12.1949 12.7306C12.5129 12.914 12.9222 12.804 13.1055 12.4873L14.4389 10.1806C14.5266 10.0274 14.5503 9.84578 14.5047 9.67521C14.4591 9.50465 14.348 9.359 14.1955 9.26998L13.2809 8.74131C13.3523 8.24964 13.3519 7.75019 13.2795 7.25865L14.1942 6.72998C14.5115 6.54665 14.6215 6.13665 14.4375 5.81931L13.1042 3.51265C13.0157 3.35964 12.87 3.24806 12.6992 3.20243C12.5285 3.1568 12.3466 3.18086 12.1935 3.26931L11.2629 3.80665C10.8779 3.5029 10.453 3.25346 10.0002 3.06531V1.99998C10.0002 1.82317 9.92995 1.6536 9.80493 1.52858C9.6799 1.40355 9.51034 1.33331 9.33352 1.33331H6.66686C6.49005 1.33331 6.32048 1.40355 6.19545 1.52858C6.07043 1.6536 6.00019 1.82317 6.00019 1.99998V3.06531C5.54734 3.25385 5.12232 3.50326 4.73686 3.80665L3.80686 3.26931C3.7311 3.22542 3.64744 3.1969 3.56065 3.18538C3.47386 3.17386 3.38565 3.17956 3.30107 3.20216C3.21649 3.22476 3.13719 3.26382 3.06772 3.31709C2.99825 3.37037 2.93996 3.43682 2.89619 3.51265L1.56286 5.81931C1.47512 5.97252 1.45146 6.15418 1.49703 6.32474C1.54261 6.49531 1.65373 6.64096 1.80619 6.72998L2.72086 7.25865C2.64895 7.75025 2.64895 8.24971 2.72086 8.74131L1.80619 9.26998C1.48886 9.45331 1.37886 9.86331 1.56286 10.1806ZM8.00019 5.33331C9.47086 5.33331 10.6669 6.52931 10.6669 7.99998C10.6669 9.47065 9.47086 10.6666 8.00019 10.6666C6.52952 10.6666 5.33352 9.47065 5.33352 7.99998C5.33352 6.52931 6.52952 5.33331 8.00019 5.33331Z" fill="#6C6C6C"/>
</svg>
