<svg width="24" height="24" viewBox="0 0 24 24" fill="none" xmlns="http://www.w3.org/2000/svg">
<path d="M21.743 12.331L12.743 2.33103C12.364 1.90903 11.636 1.90903 11.257 2.33103L2.25698 12.331C2.12744 12.4746 2.04241 12.6528 2.01223 12.8438C1.98205 13.0348 2.00802 13.2305 2.08698 13.407C2.24698 13.768 2.60498 14 2.99998 14H4.99998V21C4.99998 21.2652 5.10534 21.5196 5.29288 21.7071C5.48041 21.8947 5.73477 22 5.99998 22H8.99998C9.2652 22 9.51955 21.8947 9.70709 21.7071C9.89463 21.5196 9.99998 21.2652 9.99998 21V17H14V21C14 21.2652 14.1053 21.5196 14.2929 21.7071C14.4804 21.8947 14.7348 22 15 22H18C18.2652 22 18.5196 21.8947 18.7071 21.7071C18.8946 21.5196 19 21.2652 19 21V14H21C21.1937 14.0009 21.3834 13.9453 21.546 13.8402C21.7087 13.735 21.8372 13.5848 21.916 13.4079C21.9947 13.231 22.0203 13.035 21.9896 12.8438C21.9589 12.6525 21.8732 12.4744 21.743 12.331V12.331Z" fill="white"/>
</svg>
