<svg width="24" height="24" viewBox="0 0 24 24" fill="none" xmlns="http://www.w3.org/2000/svg">
<path d="M6 18.573C8.206 18.573 10 16.779 10 14.573V4.42797L19 7.69997V15.13C18.3949 14.7694 17.7044 14.5771 17 14.573C14.794 14.573 13 16.367 13 18.573C13 20.779 14.794 22.573 17 22.573C19.206 22.573 21 20.779 21 18.573V6.99997C21.0001 6.7948 20.937 6.59457 20.8193 6.42655C20.7016 6.25852 20.5349 6.13087 20.342 6.06097L9.342 2.06097C9.19099 2.00577 9.02889 1.98783 8.86947 2.00868C8.71005 2.02952 8.55801 2.08854 8.42627 2.18072C8.29454 2.27289 8.187 2.3955 8.11279 2.53813C8.03857 2.68076 7.99988 2.83919 8 2.99997V11.13C7.39487 10.7694 6.70439 10.5771 6 10.573C3.794 10.573 2 12.367 2 14.573C2 16.779 3.794 18.573 6 18.573Z" fill="white"/>
</svg>
