<svg width="120" height="81" viewBox="0 0 120 81" fill="none" xmlns="http://www.w3.org/2000/svg">
<rect x="6.44287" y="9.66443" width="26.5772" height="12.0805" rx="6.04027" fill="#E0E0E0"/>
<rect y="33.8255" width="26.5772" height="12.0805" rx="6.04027" fill="#E0E0E0"/>
<rect x="6.44287" y="57.9866" width="26.5772" height="12.0805" rx="6.04027" fill="#E0E0E0"/>
<path fill-rule="evenodd" clip-rule="evenodd" d="M120 40.2685C120 62.5081 101.971 80.5369 79.7316 80.5369C57.4919 80.5369 39.4631 62.5081 39.4631 40.2685C39.4631 18.0288 57.4919 0 79.7316 0C101.971 0 120 18.0288 120 40.2685ZM80 17C81.6569 17 83 18.4327 83 20.2V39L101.8 39C103.567 39 105 40.3431 105 42C105 43.6569 103.567 45 101.8 45L80.2 45C80.1649 45 80.13 44.9995 80.0952 44.9984C80.0636 44.9995 80.0319 45 80 45C79.186 45 78.4477 44.6542 77.9072 44.0928C77.3458 43.5523 77 42.814 77 42C77 41.9682 77.0005 41.9364 77.0016 41.9048C77.0005 41.87 77 41.8351 77 41.8V20.2C77 18.4327 78.3431 17 80 17Z" fill="white"/>
</svg>
